PathFileType	4	(X/Y/Z)	path1_07_0-560.trc
DataRate	CameraRate	NumFrames	NumMarkers	Units	OrigDataRate	OrigDataStartFrame	OrigNumFrames
30	30	9	22	m	30	0	560
Frame#	Time	Hip			RHip			RKnee			RAnkle			RBigToe			RSmallToe			RHeel			LHip			LKnee			LAnkle			LBigToe			LSmallToe			LHeel			Neck			Head			Nose			RShoulder			RElbow			RWrist			LShoulder			LElbow			LWrist		
		X1	Y1	Z1	X2	Y2	Z2	X3	Y3	Z3	X4	Y4	Z4	X5	Y5	Z5	X6	Y6	Z6	X7	Y7	Z7	X8	Y8	Z8	X9	Y9	Z9	X10	Y10	Z10	X11	Y11	Z11	X12	Y12	Z12	X13	Y13	Z13	X14	Y14	Z14	X15	Y15	Z15	X16	Y16	Z16	X17	Y17	Z17	X18	Y18	Z18	X19	Y19	Z19	X20	Y20	Z20	X21	Y21	Z21	X22	Y22	Z22
1	0.0333333333333333	2.7152981666156473	0.8266685305118296	0.8775538504346082	2.7229863790425783	0.7947330013424944	0.8105119747313679	2.6917343954050916	0.4657060505214792	0.7848448549523868	2.744898447816591	0.10964451051791069	0.7933288147347692	2.577020944944032	0.01926771688247822	0.7841513707009599	2.621452070709498	0.020444236488750298	0.7230714559955452	2.7958332329795823	0.034040878687165335	0.8128688119973086	2.712018767964064	0.793108012360288	0.9766308090408189	2.726087197587836	0.4222668611710273	0.9636384276913684	2.775557200910389	0.08470856420455607	0.9669625156993873	2.5999305249873976	0.007380627928184927	1.0180420203170004	2.653627797749317	0.015151531745311152	1.0901667284630774	2.8202936713914712	0.035920479964948	0.9873238303444597	2.676335377909483	1.4654814638389864	0.8945627944364654	2.579201865774445	1.6833017478488863	0.8776650582995174	2.5411056332305786	1.5982134944142554	0.8530250883376694	2.7263090642610863	1.3651424606079787	0.733049722892766	2.731450409601539	1.0840231601468895	0.6645517919644377	2.7079491879714475	0.845207232354023	0.6684989323894258	2.671016870412866	1.344497008907472	1.0652756511086756	2.7587796956384008	1.067030188092906	1.0871652346392715	2.745042420216823	0.8274437305312833	1.084618915621852
2	0.0666666666666666	2.71664665096952	0.8281546283074764	0.8794379215503293	2.7233211230685903	0.7971491413159552	0.8108756645015585	2.6911649054075615	0.46971015330052823	0.7842284714934495	2.746979957326155	0.10863836559975908	0.7935146982389023	2.5792393949801165	0.02158700068493948	0.7837043090399975	2.6191376844459113	0.01992705682597381	0.7227113039348452	2.799329038232747	0.03168270363019037	0.8145952430348803	2.71297994863169	0.7952419856439121	0.9763167081732377	2.7157105362247	0.4353362770277407	0.9655355262084415	2.765102690541199	0.09269966375152755	0.9687946564324887	2.602562105330342	0.008946864448410476	1.0098892005976838	2.647038468708131	0.01925197929042055	1.0786279177605838	2.8104665609592323	0.03585578966011341	0.9775367064125449	2.6666358254838967	1.4579744206923277	0.8870630472443896	2.579671292296214	1.683083297678245	0.8785349956062724	2.5392297034694367	1.5986260052439867	0.8505173753291728	2.7249876152159227	1.3558986541467124	0.7173793707656235	2.7296795260167555	1.0827671846058105	0.6655704522916606	2.706899894076841	0.8468349880504464	0.668327035118801	2.672724565065623	1.3447563696584148	1.0629684884323087	2.7597171008581522	1.0661628930776574	1.0839499364572214	2.749589954258744	0.8300357443740219	1.079193508687104
3	0.1	2.7176782447701964	0.8293602303379873	0.8809916822026207	2.7232995343216895	0.7991431741913393	0.8109295786622939	2.6907864030210575	0.47294248569289843	0.783767063047516	2.7486084372886315	0.10787499445365759	0.7936274316633132	2.5803756773853843	0.023404634752376596	0.7827689633639027	2.617640174718655	0.019439230827184815	0.7224093662376233	2.802556166232162	0.02963062743693169	0.816009309393857	2.7134213611328857	0.7969061284513455	0.9757150250476008	2.7075180855321928	0.44582347203119316	0.9670215346273637	2.756597205057203	0.09906584079190073	0.9701970465009975	2.604772422749759	0.0099899342486635	1.0033247778372592	2.6421673177061313	0.022340267565607017	1.0693373710475509	2.8027108839448305	0.03579295136799633	0.9696254740456205	2.6586434725690253	1.4520513143034564	0.8810411184920028	2.5799743089102685	1.6828248417039098	0.8793343369738553	2.5375916892555037	1.5989763335603218	0.8482570205445005	2.723521263105453	1.3477650510016366	0.7035200076510137	2.727979629811185	1.081610576692439	0.666441636488245	2.7060503665723954	0.848048473222732	0.6681754526650426	2.674834329918755	1.3449646493725758	1.060486584543436	2.760381738683121	1.0654164544598175	1.081276569308712	2.753230827075779	0.832138801729502	1.0747342437292695
4	0.1333333333333333	2.7182639246890123	0.8301499612095659	0.88205432262961	2.722852331826513	0.8004171610096509	0.8105681584260862	2.6906181710852977	0.47502847840205453	0.783514118627786	2.7495529260307903	0.10748342888271586	0.793647263494468	2.580476633935784	0.024432856834685164	0.7815441102649928	2.617207201622062	0.018983026932841526	0.7222022671097048	2.8053675270427862	0.02802027592299735	0.8168703815238731	2.713206138869429	0.7978411341072046	0.9748082873701716	2.7024630106577874	0.4525796693335915	0.9679337617384839	2.750940012557473	0.1031068694672139	0.9709902527812607	2.606273845954753	0.010364322949675831	0.999132643363703	2.639817544612243	0.02393533224445759	1.0633077230645647	2.797937998200087	0.03571765938984823	0.9643966230034997	2.653180834660638	1.4483729195098993	0.8771450986911723	2.5800652546373772	1.682502024644478	0.880027667925269	2.5363460517574183	1.599207690459709	0.8463243540528658	2.722035207381104	1.3417130773102588	0.6930571135190704	2.726483431634557	1.0806070241620707	0.6670842037250404	2.705466544775016	0.8487105391587844	0.6680260538825514	2.677161693337999	1.345021537517599	1.0580462480628117	2.7606917154223476	1.064760953485825	1.0792913730075189	2.755600416740777	0.8335274138182018	1.0716088574855964
5	0.1666666666666666	2.7185040169984425	0.8305450439483555	0.8826378241832359	2.722249785783582	0.8009004089662105	0.8099156285321787	2.690548132583539	0.47603690243202074	0.7834379846978958	2.7498866764459384	0.10741058338282321	0.7936011026349965	2.580572911637803	0.024756880956716538	0.7807606955749893	2.617565079718441	0.018539460460427083	0.7221257627468015	2.807798230039236	0.02678257211976895	0.8170522202138748	2.712546451538718	0.7980743752660261	0.9738374663608074	2.7001826486514586	0.4559524100068878	0.9683526341170076	2.747949155891196	0.10505205564516405	0.9712558202019175	2.6069561028019796	0.010363888306183943	0.9973592871419321	2.639566781041995	0.024186768710986517	1.0602296986204156	2.7958332667238466	0.03559520205442592	0.9615845142952499	2.6501077855172905	1.4466665829677756	0.8751624848826578	2.5799643754042823	1.6821197099196676	0.8806488141095844	2.5354825824598746	1.5993026076387125	0.8446536317643251	2.720811024882107	1.338083228400331	0.6865652468985048	2.725313112999576	1.079792762808317	0.6674733223429488	2.705035540665346	0.8489119538869792	0.6678117522064075	2.6788934232201447	1.3448283845715805	1.0562968643113553	2.76075510782877	1.064032876927328	1.0777466660544095	2.7568593738244203	0.8342346436384694	1.0696214933632908
6	0.2	2.7186348819997463	0.8306247278874541	0.8828585683990469	2.7218687858814423	0.8007676102828427	0.8091894143440962	2.690459759167505	0.4762746563664624	0.7834906694894961	2.7498663312764244	0.10749718322824073	0.7935228908304361	2.5815915136675924	0.02471448402319228	0.7810009604447085	2.6182894405213215	0.0181199248243364	0.7222154764341271	2.8099190168024943	0.02579808883970101	0.8165609958326232	2.7117754883523375	0.7978497297389133	0.9730833908483354	2.6997065574910004	0.4569685738000305	0.9684576619512383	2.7469459403146272	0.10554346303592538	0.9711713854028411	2.606889518513295	0.010374095646720006	0.9976428138491438	2.640413483474479	0.023566590638881176	1.059193057688765	2.7955034699477572	0.03540974074140387	0.9604611921441113	2.6487897176174404	1.446261474766993	0.8744939896257833	2.579738630210902	1.6817562611811425	0.8811750446426811	2.534873733848838	1.5992948546261379	0.8432172162082565	2.7200385838131846	1.3364684798226545	0.6834305049301476	2.724489382411395	1.0792249718587277	0.667618353223966	2.7045906546636935	0.8488015995641792	0.667481797370129	2.679527168270012	1.3443926937968746	1.0556117770590947	2.7607390919631283	1.0630559128220582	1.076278353491631	2.7573470707359657	0.8343989241737491	1.0684115942459882
7	0.2333333333333333	2.718861113995176	0.8304544647491043	0.8828807062457811	2.7219170473507512	0.8003185576238017	0.808561220524276	2.690306576239034	0.4760797038157869	0.7836177029183489	2.7497168366461997	0.10760228576330315	0.7934359078856247	2.5836186445850635	0.02460645408146967	0.7822584906118133	2.6190984311420724	0.017778060786002338	0.7224713591351895	2.811640470569057	0.025072865663134526	0.8155752615370748	2.711158729205834	0.7974577463932883	0.972679949860505	2.7000682837583607	0.4566722168037132	0.9684195764904131	2.7471522730429605	0.1052544784999599	0.9708849535024753	2.6062601253251962	0.010562747993244182	0.9992914540565513	2.641513219554611	0.02260124400292008	1.0592764824959244	2.796002310018827	0.03522198521279903	0.9602966602486924	2.648523636613086	1.4464994880914006	0.8745417695964242	2.5795456456879724	1.6815719135178275	0.8813989834249316	2.534402265188728	1.5992366848776136	0.8421174597919603	2.7197425228254684	1.3361483708181414	0.6825148180625784	2.7239608166740794	1.0789242377524124	0.6675827411880784	2.704081644169741	0.8485074600643223	0.667080403535558	2.679494642906727	1.3438333221586205	1.0555866138526115	2.76074424847816	1.0617846776258435	1.0746978830854919	2.7573600935256697	0.8341881282370067	1.0676928453255532
8	0.2666666666666666	2.7191726681419293	0.8301209258896701	0.8828491934081483	2.722287761566211	0.7998104637484953	0.808109541271678	2.690133214410843	0.4757021320550089	0.7837355227815257	2.749531156606528	0.10763967848480732	0.7933554289378646	2.5858454092757714	0.024538254460009425	0.7839028209737695	2.6199640515579232	0.017558999444104138	0.7228640624747825	2.812684370038905	0.024736219914020165	0.8144716699887894	2.710769172363828	0.7970747032650224	0.972573346430995	2.70056129229105	0.45586837357513893	0.9683595413653318	2.747797810513852	0.1047308283633541	0.9705190019250266	2.6053277938760946	0.010908186910351376	1.0013912420386173	2.6423502052537966	0.021768009657496014	1.0597616507819287	2.7965460476857373	0.035162315687124523	0.9605639958603789	2.648739168608708	1.4469027910475651	0.8748790096898031	2.5797041958828757	1.681789399248867	0.8808495602066018	2.534013947773142	1.5991537416310764	0.8415696631548876	2.719714037035052	1.3365261352653441	0.6827838385679434	2.7236810101586078	1.078813847833425	0.6674926951125396	2.7036000706827634	0.848136143896035	0.6667536378489193	2.679221265473584	1.3432628379589489	1.0558017183230604	2.7607268686490727	1.0604516034387208	1.0732197643201156	2.757110325866688	0.8337960667882655	1.067295057157564
9	0.3	2.7193448239795828	0.8297673202760429	0.8828409827131894	2.722639489553686	0.7993658987338631	0.8078572557598438	2.690022010170999	0.4752789913635379	0.7837728081409925	2.7493470533504922	0.10756458557564773	0.7932886017805983	2.587097346209597	0.024458380277589856	0.7850540264312095	2.620957932028902	0.017463968449824098	0.7233701161653816	2.812800905157458	0.02485825072220392	0.813663446474337	2.710543468560645	0.7967285850375615	0.9726220475621645	2.7008141868128135	0.45506615265534145	0.9683533669328817	2.7482437145946657	0.10432886703626086	0.9702084120240375	2.604423876742979	0.011304590563858411	1.003055665648714	2.6426691995893767	0.021378819062817852	1.0601966708376966	2.7966074282370057	0.03533613572133852	0.9609878985619922	2.649043863625301	1.4472014462979468	0.8752744383025244	2.580717031070566	1.6826528236781182	0.8788291532583871	2.533696028428645	1.5990384208608375	0.8418017439804386	2.719453568569418	1.337308107872002	0.683604355144979	2.723617143501181	1.0787753584665727	0.6674754053658107	2.703265590623066	0.847808456824555	0.66668415050975	2.6782691630163584	1.342712343137109	1.0565595515015918	2.760544412745573	1.0595095463117343	1.0723819139102901	2.7567330094529416	0.8334032669842261	1.0671446146818637
